PathFileType	4	(X/Y/Z)	\\Move.snu.ac.kr\motion\Animal\091204_091205_Bird\091205_bird\Project 2\Capture day 2\Session 1\pigeon_007_new_after_delete_unlabel.trc
DataRate	CameraRate	NumFrames	NumMarkers	Units	OrigDataRate	OrigDataStartFrame	OrigNumFrames
240.0	240.0	19	14	mm	240.0	250	5319
Frame#	Time	14MarkersBird:Head			14MarkersBird:C_back			14MarkersBird:Spine			14MarkersBird:L-shoulder			14MarkersBird:L-elbow			14MarkersBird:L-wrist			14MarkersBird:L-hand			14MarkersBird:R-shoulder			14MarkersBird:R-elbow			14MarkersBird:R-Wrist			14MarkersBird:R-hand			14MarkersBird:C_Tail			14MarkersBird:L-Tale			14MarkersBird:R-Tale			
		X1	Y1	Z1	X2	Y2	Z2	X3	Y3	Z3	X4	Y4	Z4	X5	Y5	Z5	X6	Y6	Z6	X7	Y7	Z7	X8	Y8	Z8	X9	Y9	Z9	X10	Y10	Z10	X11	Y11	Z11	X12	Y12	Z12	X13	Y13	Z13	X14	Y14	Z14	

2804	11.679	866.22394	732.30579	-1332.30872	809.33765	727.77966	-1352.14832	755.56793	722.54242	-1357.21362	842.16205	719.32904	-1367.28210	827.65234	717.54773	-1396.25208	858.68243	697.54462	-1418.36853	871.20398	690.14716	-1441.63562	837.86383	717.87463	-1316.50342	823.07526	723.54498	-1301.45581	851.43726	702.15985	-1276.04968	864.64337	691.01538	-1241.88220	661.29413	642.85413	-1385.06226	743.68854	671.91174	-1450.91565	696.81458	675.46313	-1269.64270	
2805	11.683	887.73993	731.06049	-1330.80139	830.31934	727.66956	-1350.11707	776.44073	722.28162	-1354.79919	863.30371	718.39801	-1365.46948	849.45239	711.78400	-1394.07385	882.90869	688.29608	-1408.44958	897.54547	674.50574	-1426.91577	859.35223	717.09802	-1314.35461	845.83319	717.93427	-1298.84766	875.36060	691.99286	-1280.76013	891.11151	673.80286	-1250.91101	683.12201	638.75525	-1376.78979	760.05432	667.14233	-1446.19849	719.83575	674.39276	-1265.56702	
2806	11.688	909.49982	729.83130	-1329.41809	851.51685	727.59283	-1347.97388	797.75269	721.33539	-1352.34778	884.49207	717.77924	-1363.57629	870.42780	707.42456	-1391.17786	906.12628	683.31445	-1398.36060	921.94208	664.84912	-1410.66443	880.90051	716.44629	-1312.38708	867.69592	713.47864	-1297.04980	898.70587	685.53955	-1286.22449	916.12170	661.45605	-1261.98792	704.88104	635.49323	-1368.58154	776.53522	662.44849	-1441.26184	742.95258	673.25275	-1261.67993	
2807	11.692	931.47980	728.56445	-1328.13489	872.95477	727.35699	-1345.70776	819.08112	720.35358	-1349.90466	905.76178	717.32166	-1361.54529	890.44061	704.70648	-1388.15430	928.27148	682.53882	-1389.91125	944.43878	661.32788	-1395.87390	902.50366	715.86487	-1310.59558	888.46802	710.47272	-1295.50403	921.39270	683.15234	-1290.87122	939.58276	654.45886	-1272.71570	726.62408	633.03119	-1361.17114	793.80432	657.89063	-1436.33386	765.94513	671.85858	-1258.14758	
2808	11.696	953.59479	727.22009	-1326.88232	894.70898	726.78601	-1343.30005	840.71265	719.11847	-1347.44470	927.15198	716.82788	-1359.35437	909.47260	703.79602	-1385.44324	949.28131	685.23212	-1384.38037	965.30078	662.83990	-1385.14197	924.15637	715.29919	-1308.97485	908.26245	709.09479	-1293.75293	943.19537	684.43176	-1293.27124	961.44977	652.43250	-1280.74280	748.34998	631.30969	-1355.00977	812.26263	653.68085	-1431.63635	788.66992	670.14636	-1255.08826	
2809	11.700	975.76831	725.74377	-1325.55859	916.85492	725.74268	-1340.75403	862.69080	717.74609	-1344.92688	948.70184	716.13513	-1357.04089	927.71844	704.80121	-1383.04883	969.16687	690.36108	-1382.16919	984.72119	667.49091	-1379.96692	945.85358	714.69476	-1307.51990	927.23242	709.47131	-1291.69666	963.85229	688.43878	-1292.60986	981.59045	654.28772	-1284.33594	770.08063	630.19965	-1350.25110	831.97217	650.11285	-1427.36218	811.05511	668.05603	-1252.58179	
2810	11.704	997.95673	724.12415	-1324.09937	939.38348	724.13727	-1338.09705	884.99207	716.31689	-1342.35156	970.40924	715.13391	-1354.64771	945.63733	707.61426	-1380.42261	988.05341	697.03613	-1382.69397	1002.54883	673.51355	-1380.38965	967.59009	713.99695	-1306.22534	945.53625	711.57898	-1289.78931	983.35199	694.26923	-1288.95276	999.70673	658.75555	-1282.83130	791.88965	629.37250	-1346.82605	852.71051	647.45990	-1423.68958	833.02185	665.67310	-1250.63159	
2811	11.708	1020.12378	722.39874	-1322.49609	962.01733	722.45728	-1335.33008	907.53973	714.83624	-1339.75256	992.22949	713.74902	-1352.17651	962.84509	711.27710	-1378.68311	1006.10400	704.75995	-1384.52063	1018.24243	680.19995	-1385.08337	989.36072	713.15131	-1305.08618	963.58356	715.10980	-1288.93164	1001.90710	701.41071	-1283.21912	1015.34674	665.05023	-1276.76392	813.92688	628.38544	-1344.54932	874.11493	645.97272	-1420.79211	854.43506	663.57996	-1249.09607	
2812	11.712	1042.26184	720.58032	-1320.78027	985.18329	719.47827	-1332.65234	930.21466	713.24243	-1337.17346	1014.14795	711.97076	-1349.61169	981.88757	716.94757	-1373.43518	1023.47986	713.33948	-1385.79590	1031.20129	688.12244	-1391.65479	1011.16034	712.10321	-1304.09705	982.12811	719.32910	-1289.94824	1019.73688	709.67792	-1277.02991	1028.12415	673.27350	-1267.70422	836.28564	626.99066	-1343.16809	895.88141	645.87140	-1418.82263	875.23859	662.72662	-1247.66431	
2813	11.717	1064.37830	718.67236	-1318.98975	1008.30103	716.55493	-1329.87793	952.90735	711.46295	-1334.64709	1036.22778	709.88959	-1347.01135	1001.84497	721.94037	-1365.29602	1040.44165	722.50635	-1384.83301	1041.53870	698.51581	-1397.10315	1032.98376	710.79816	-1303.25281	1001.93921	723.27948	-1293.06580	1037.06531	718.83252	-1272.30469	1038.20337	684.27826	-1258.03125	858.78027	625.32416	-1342.35608	917.92883	647.25415	-1417.82007	895.68866	663.59979	-1245.96252	
2814	11.721	1086.46387	716.69824	-1317.15564	1031.18372	713.67407	-1327.22522	975.83099	709.70874	-1332.20898	1058.47241	707.60669	-1344.50525	1023.00726	721.96161	-1354.76233	1057.40942	731.60535	-1380.75122	1050.65393	711.96423	-1398.65149	1054.82593	709.18164	-1302.54822	1023.29449	726.09857	-1297.78247	1054.32336	728.31482	-1270.52551	1046.67188	698.98157	-1250.54395	880.97443	623.86145	-1341.83936	940.37897	649.98199	-1417.62195	916.34869	665.67303	-1243.74304	
2815	11.725	1108.48914	714.63092	-1315.32996	1053.63379	710.80658	-1324.71973	997.94904	707.31982	-1329.69519	1080.76855	705.19025	-1342.22253	1046.02344	721.50879	-1345.35950	1074.92249	739.75482	-1373.84851	1060.76099	727.60895	-1394.85522	1076.69836	707.36090	-1301.99890	1045.81604	727.22711	-1302.99329	1072.13782	737.29358	-1271.98608	1055.46216	717.45038	-1247.76440	902.39105	623.12708	-1341.51270	963.41626	653.53735	-1417.85510	937.74786	667.86591	-1240.97485	
2816	11.729	1130.39966	712.37299	-1313.57715	1075.70801	707.97595	-1322.35193	1020.49579	704.89496	-1327.28027	1102.91736	702.62817	-1340.16162	1070.64832	721.45184	-1337.66724	1093.41272	746.17407	-1365.53857	1073.80127	743.54730	-1385.98486	1098.76709	705.37701	-1301.32288	1068.92102	726.56659	-1307.33240	1090.98218	744.93359	-1275.55701	1066.79529	738.08209	-1250.92358	922.81396	623.40955	-1341.43188	987.10382	657.08051	-1418.07861	960.09119	669.32599	-1237.76147	
2817	11.733	1152.13806	709.81329	-1311.90515	1097.46362	705.20575	-1320.11182	1042.89270	702.27893	-1324.86011	1124.80945	699.93188	-1338.22742	1095.45203	721.64716	-1332.10608	1113.07520	750.50037	-1357.78796	1090.77380	757.59833	-1373.89941	1120.43835	703.01990	-1299.07300	1092.29773	724.61981	-1309.61279	1110.87927	750.64807	-1279.19153	1082.43005	757.93109	-1258.84058	942.36670	624.71106	-1341.69177	1011.30005	659.77454	-1417.96521	983.25897	669.59137	-1234.21545	
2818	11.738	1173.73511	706.99030	-1310.23962	1118.95728	702.51941	-1317.98962	1064.87012	699.37915	-1322.43481	1146.51636	697.22449	-1336.36292	1118.76367	721.26337	-1328.97339	1133.81567	752.78052	-1352.42346	1111.65906	767.96271	-1361.89624	1142.34167	700.67261	-1296.76721	1116.01270	722.34534	-1309.20947	1131.52661	754.13617	-1280.77600	1102.95459	774.05908	-1267.70117	961.43365	626.79913	-1342.26794	1035.73206	661.18439	-1417.38306	1006.89862	668.43341	-1230.48071	
2819	11.742	1195.29297	704.12109	-1308.45667	1140.24622	699.94037	-1315.97546	1086.50366	696.30920	-1320.02380	1168.18494	694.64087	-1334.57068	1140.20325	719.96527	-1328.11536	1155.26526	753.08319	-1350.48438	1135.54724	773.83295	-1353.91663	1164.16345	698.11346	-1293.91943	1140.01770	720.59814	-1306.29309	1152.58557	755.18329	-1278.96021	1127.55347	784.65973	-1272.48352	980.54828	629.14069	-1342.89697	1060.01929	661.40302	-1416.33289	1030.53882	665.85272	-1226.81458	
2820	11.746	1216.85095	701.37311	-1306.48657	1161.38733	697.49219	-1314.05969	1107.86877	693.18298	-1317.64673	1189.86218	692.23804	-1332.80518	1160.76453	718.08929	-1329.03772	1177.15723	751.27966	-1352.03247	1160.98914	775.38885	-1352.73035	1185.85095	695.44757	-1290.86096	1163.76465	719.49310	-1301.52856	1173.95764	753.58997	-1273.59314	1154.38428	789.07184	-1269.71216	1000.20825	630.87445	-1343.12634	1083.73474	660.77234	-1414.87085	1053.73267	662.00720	-1223.53845	
2821	11.750	1238.41809	698.77368	-1304.31445	1182.43774	695.19830	-1312.23230	1129.04138	690.11414	-1315.32275	1211.50525	690.01874	-1330.94751	1181.66406	715.88867	-1331.23718	1199.51917	747.06580	-1356.42529	1186.81555	772.97095	-1358.61157	1207.51782	692.86176	-1287.91638	1186.59937	718.40479	-1295.58350	1195.90186	749.39154	-1265.41492	1181.66223	787.43384	-1259.25281	1020.67603	631.04474	-1342.53760	1106.53613	659.46655	-1413.05457	1076.22046	657.11993	-1220.85645	
2822	11.754	1259.99231	696.26514	-1302.02661	1203.45422	693.08221	-1310.48364	1150.09692	687.21649	-1313.07153	1233.07141	687.94159	-1328.91943	1203.53320	713.18658	-1334.20020	1222.53772	740.19482	-1362.66431	1212.85486	766.35596	-1369.50598	1229.29199	690.37714	-1285.18799	1208.33655	716.49445	-1288.85168	1218.77319	742.84637	-1255.49341	1208.77393	780.34839	-1243.57178	1041.96155	629.06854	-1340.93372	1128.31604	657.37408	-1410.95239	1098.05798	651.59778	-1218.76135	
